<svg width="1215" height="781" viewBox="0 0 1215 781" fill="none" xmlns="http://www.w3.org/2000/svg">
    <rect x="173" y="287" width="224" height="186" fill="#0BD4CC"/>
    <rect width="204" height="781" rx="20" fill="#0BD4CC"/>
    <path d="M173 0H353V178H173V0Z" fill="#0BD4CC"/>
    <path d="M183 589H643C654.046 589 663 597.954 663 609V761C663 772.046 654.046 781 643 781H183V589Z" fill="#0BD4CC"/>
    <path d="M564 473C349.388 473 406.668 473 347.258 473C287.847 473 239.685 432.132 239.685 381.718C129.45 287 124.125 287 472.404 287C472.404 430.794 564 473 564 473Z" fill="#0BD4CC"/>
    <path d="M582 0.000164743C470 35.5 475.403 177.722 475.403 177.722C83.9153 177.722 102.563 184.946 259.839 125.706C195.817 -7.70686 117.076 20.2297 279.224 0.000164743C582.368 -0.000205928 447.878 0.000164743 582 0.000164743Z" fill="#0BD4CC"/>
    <path d="M503 176C503 79.3502 581.35 1 678 1C685.732 1 692 7.26801 692 15V455.234C692 465.046 684.046 473 674.234 473C579.664 473 503 396.336 503 301.766V176Z" fill="white"/>
    <path d="M1214.5 606C1214.5 702.65 1136.15 781 1039.5 781C1031.77 781 1025.5 774.732 1025.5 767V312.766C1025.5 302.954 1033.45 295 1043.27 295C1137.84 295 1214.5 371.664 1214.5 466.234V606Z" fill="white"/>
    <path d="M663 1H907V178H663V1Z" fill="white"/>
    <rect x="677" y="295" width="367" height="178" fill="white"/>
    <rect x="816" y="1" width="231" height="177" rx="20" fill="white"/>
    <path d="M692 609C692 597.954 700.954 589 712 589H1047V781H712C700.954 781 692 772.046 692 761V609Z" fill="white"/>
</svg>